<?xml version="1.0" encoding="utf-8"?>
<!-- Generator: Adobe Illustrator 18.0.0, SVG Export Plug-In . SVG Version: 6.00 Build 0)  -->
<!DOCTYPE svg PUBLIC "-//W3C//DTD SVG 1.1//EN" "http://www.w3.org/Graphics/SVG/1.1/DTD/svg11.dtd">
<svg version="1.1" id="Layer_1" xmlns="http://www.w3.org/2000/svg" xmlns:xlink="http://www.w3.org/1999/xlink" x="0px" y="0px"
	 viewBox="-4.2 -21.1 75 75" enable-background="new -4.2 -21.1 75 75" xml:space="preserve">
<path fill="#231F20" d="M31.9,12.5c-0.2,0.2-0.4,0.4-0.6,0.5c0,0,0,0-0.1,0.1c-2.7,2.7-4.4,6.4-4.4,10.6h-2.7c0-2.9,0.7-5.6,1.9-8
	c-1.4-0.5-2.8-0.8-4.3-0.8c-5.1,0-9.5,2.9-11.7,7.1c0.3,0,0.6,0,0.9,0c6,0,11.5,3.2,14.6,8.2c0.2,0,0.3,0,0.5,0
	c2.7,0,5.4,0.9,7.5,2.4c0.2-0.2,0.5-0.3,0.7-0.5c1.8-5.2,6.7-8.8,12.3-8.8c4.9,0,9.3,2.8,11.5,6.9c0.5-0.1,1-0.1,1.5-0.1
	c3.9,0,7.4,1.7,9.8,4.5c0.5-1.3,0.8-2.7,0.8-4.1c0-5.9-4.8-10.6-10.6-10.6c-0.6,0-1.2,0.1-1.8,0.2c-2-6.3-7.6-10.9-14.5-11.4v0
	c-0.4,0-0.7-0.1-1.1-0.1c-0.2,0-0.3,0-0.5,0v0c-0.4,0-0.7,0-1.1,0.1c-0.1,0-0.2,0-0.3,0c-0.4,0.1-0.9,0.1-1.3,0.2c0,0-0.1,0-0.1,0
	c-0.4,0.1-0.9,0.2-1.3,0.3c-0.1,0-0.3,0.1-0.4,0.1c-0.3,0.1-0.7,0.2-1,0.4c-0.1,0.1-0.3,0.1-0.4,0.2c-0.3,0.1-0.7,0.3-1,0.5
	c-0.2,0.1-0.3,0.2-0.5,0.3c-0.2,0.1-0.5,0.3-0.7,0.4c-0.3,0.2-0.5,0.3-0.8,0.5c-0.2,0.1-0.4,0.3-0.6,0.4
	C32.2,12.2,32.1,12.3,31.9,12.5z"/>
<circle fill="#231F20" cx="45.4" cy="3.5" r="2.5"/>
<path fill="#231F20" d="M43.1-12.5c1.4,0,2.5-1.1,2.5-2.5c0-1.4-1.1-2.5-2.5-2.5c-1.4,0-2.5,1.1-2.5,2.5
	C40.7-13.6,41.8-12.5,43.1-12.5z"/>
<path fill="#231F20" d="M48.8-8.8c1.4,0,2.5-1.1,2.5-2.5c0-1.4-1.1-2.5-2.5-2.5c-1.4,0-2.5,1.1-2.5,2.5C46.4-9.9,47.5-8.8,48.8-8.8z
	"/>
<path fill="#231F20" d="M64.4,12.6c-1.4,0-2.5,1.1-2.5,2.5c0,1.4,1.1,2.5,2.5,2.5c1.4,0,2.5-1.1,2.5-2.5
	C66.8,13.7,65.7,12.6,64.4,12.6z"/>
<path fill="#231F20" d="M67.9-12.3c1.4,0,2.5-1.1,2.5-2.5c0-1.4-1.1-2.5-2.5-2.5c-1.4,0-2.5,1.1-2.5,2.5
	C65.4-13.4,66.5-12.3,67.9-12.3z"/>
<path fill="#231F20" d="M37.6-5.8c1.4,0,2.5-1.1,2.5-2.5s-1.1-2.5-2.5-2.5c-1.4,0-2.5,1.1-2.5,2.5C35.2-6.9,36.3-5.8,37.6-5.8z"/>
<path fill="#231F20" d="M57.8-4c1.4,0,2.5-1.1,2.5-2.5c0-1.4-1.1-2.5-2.5-2.5c-1.4,0-2.5,1.1-2.5,2.5C55.3-5.1,56.4-4,57.8-4z"/>
<path fill="#231F20" d="M62.6,7.2c1.4,0,2.5-1.1,2.5-2.5c0-1.4-1.1-2.5-2.5-2.5c-1.4,0-2.5,1.1-2.5,2.5C60.1,6.1,61.2,7.2,62.6,7.2z
	"/>
<path fill="#231F20" d="M4.1,13.5c1.4,0,2.5-1.1,2.5-2.5S5.4,8.6,4.1,8.6c-1.4,0-2.5,1.1-2.5,2.5C1.6,12.4,2.7,13.5,4.1,13.5z"/>
<path fill="#231F20" d="M8.6-15.7c1.4,0,2.5-1.1,2.5-2.5c0-1.4-1.1-2.5-2.5-2.5c-1.4,0-2.5,1.1-2.5,2.5C6.1-16.8,7.2-15.7,8.6-15.7z
	"/>
<path fill="#231F20" d="M10-4.2c0,1.4,1.1,2.5,2.5,2.5c1.4,0,2.5-1.1,2.5-2.5c0-1.4-1.1-2.5-2.5-2.5C11.1-6.6,10-5.5,10-4.2z"/>
<circle fill="#231F20" cx="-1.3" cy="-6.9" r="2.5"/>
<path fill="#231F20" d="M13,3.8c-1.4,0-2.5,1.1-2.5,2.5c0,1.4,1.1,2.5,2.5,2.5c1.4,0,2.5-1.1,2.5-2.5C15.5,4.9,14.4,3.8,13,3.8z"/>
<path fill="#231F20" d="M27.5-9.3c1.4,0,2.5-1.1,2.5-2.5c0-1.4-1.1-2.5-2.5-2.5c-1.4,0-2.5,1.1-2.5,2.5C25.1-10.4,26.2-9.3,27.5-9.3
	z"/>
<path fill="#231F20" d="M20.8-2.4c1.4,0,2.5-1.1,2.5-2.5c0-1.4-1.1-2.5-2.5-2.5c-1.4,0-2.5,1.1-2.5,2.5C18.4-3.5,19.5-2.4,20.8-2.4z
	"/>
<path fill="#231F20" d="M28,1.7c0,1.4,1.1,2.5,2.5,2.5c1.4,0,2.5-1.1,2.5-2.5c0-1.4-1.1-2.5-2.5-2.5C29.1-0.8,28,0.3,28,1.7z"/>
<path fill="#231F20" d="M59.7,32.9c-1.1,0-2.2,0.2-3.2,0.5c-1.3-4.3-5.2-7.4-9.9-7.4c-4.9,0-8.9,3.4-10,7.9c-1.1,0.6-2.2,1.3-3,2.3
	c-1.9-2-4.6-3.3-7.5-3.3c-0.7,0-1.3,0.1-2,0.2c-2.3-5-7.3-8.4-13.1-8.4c-8,0-14.4,6.4-14.4,14.4c0,8,6.4,14.4,14.4,14.4h48.7
	c5.7,0,10.3-4.6,10.3-10.3C70,37.5,65.4,32.9,59.7,32.9z"/>
</svg>
