<?xml version="1.0" encoding="utf-8"?>
<!-- Generator: Adobe Illustrator 18.0.0, SVG Export Plug-In . SVG Version: 6.00 Build 0)  -->
<!DOCTYPE svg PUBLIC "-//W3C//DTD SVG 1.1//EN" "http://www.w3.org/Graphics/SVG/1.1/DTD/svg11.dtd">
<svg version="1.1" id="Layer_1" xmlns="http://www.w3.org/2000/svg" xmlns:xlink="http://www.w3.org/1999/xlink" x="0px" y="0px"
	 viewBox="13.3 -3.1 75 75" enable-background="new 13.3 -3.1 75 75" xml:space="preserve">
<g id="Captions" display="none">
</g>
<g id="Your_Icon">
	<path d="M50.8,71.5c17.8,0,30-19.3,20.6-36C64,22.3,59.3,12.4,54.6,0.2c-0.6-1.5-1.9-2.8-3.8-2.8c-1.9,0-3.3,1.3-3.9,2.8
		c-4.7,12.2-9.3,22.1-16.8,35.3C20.7,52.2,32.9,71.5,50.8,71.5 M51.6,46.8c-0.1-4.6,0.7-9.7,2.4-15.8c0.4-1.6,0.8-1.8,1.2-1.9
		c0.4-0.1,0.8,0.1,1.7,1.4c3.5,5.4,5.8,10,7,14.4c0.9,3.3-1.4,7-5.1,7.5C54.9,53.1,51.7,50.2,51.6,46.8z"/>
</g>
</svg>
