<?xml version="1.0" encoding="utf-8"?>
<!-- Generator: Adobe Illustrator 18.0.0, SVG Export Plug-In . SVG Version: 6.00 Build 0)  -->
<!DOCTYPE svg PUBLIC "-//W3C//DTD SVG 1.1//EN" "http://www.w3.org/Graphics/SVG/1.1/DTD/svg11.dtd">
<svg version="1.1" id="Layer_2" xmlns="http://www.w3.org/2000/svg" xmlns:xlink="http://www.w3.org/1999/xlink" x="0px" y="0px"
	 viewBox="253 0 358 603.1" enable-background="new 253 0 358 603.1" xml:space="preserve">
<path fill="#404040" d="M503.4,432.4H360.6c-14.8,0-26.9,9.3-26.9,22.3c0,12.1,12.1,22.3,26.9,22.3h141.9c14.8,0,26.9-9.3,26.9-22.3
	C530.3,442.6,518.2,432.4,503.4,432.4z"/>
<path fill="#404040" d="M530.3,516.8c0-12.1-12.1-22.3-26.9-22.3H360.6c-14.8,0-26.9,9.3-26.9,22.3c0,12.1,12.1,22.3,26.9,22.3
	h141.9C518.2,538.1,530.3,528.8,530.3,516.8z"/>
<path fill="#404040" d="M381,558.5c-14.8,0-26.9,9.3-26.9,22.3c0,12.1,12.1,22.3,26.9,22.3h102c14.8,0,26.9-9.3,26.9-22.3
	c0-12.1-12.1-22.3-26.9-22.3H381z"/>
<path fill="#404040" d="M432,2.1c-99.2,0-179,80.7-179,179.9c0,50.1,15.8,77.9,31.5,106.6c14.8,26.9,31.5,54.7,36.2,104.8
	c0,11.1,9.3,20.4,20.4,20.4H521c7.4,0,13.9-3.7,17.6-10.2c2.8-3.7,2.8-10.2,3.7-15.8c0-0.9,0-2.8,0.9-3.7
	c6.5-43.6,21.3-70.5,36.2-96.4C596.1,259,611,231.2,611,181.1C611,82.8,531.2,2.1,432,2.1z M547,127.3c-0.9,2.8-1.9,7.4-3.7,12.1
	c-0.9,4.6-3.7,10.2-5.6,16.7c-1.9,6.5-3.7,12.1-6.5,18.5c-2.8,6.5-4.6,13-7.4,19.5c-2.8,6.5-5.6,13-9.3,19.5
	c-6.5,12.1-14.8,25-25,36.2c-4.6,6.5-10.2,11.1-15.8,16.7c-5.6,5.6-12.1,10.2-17.6,14.8c-6.5,4.6-12.1,9.3-19.5,12.1
	c-6.5,3.7-13,7.4-19.5,10.2c-6.5,3.7-13,6.5-19.5,8.3c-6.5,2.8-12.1,3.7-17.6,5.6c-3.7,0.9-7.4,1.9-10.2,2.8
	c0.9-3.7,2.8-7.4,4.6-12.1c6.5-15.8,15.8-36.2,27.8-55.6c5.6-9.3,12.1-19.5,18.5-27.8c3.7-3.7,6.5-8.3,9.3-12.1
	c3.7-3.7,6.5-6.5,9.3-10.2c3.7-2.8,6.5-5.6,9.3-7.4c2.8-2.8,5.6-3.7,6.5-5.6c3.7-2.8,6.5-4.6,6.5-4.6s-2.8,0.9-6.5,3.7
	c-1.9,0.9-4.6,2.8-7.4,4.6s-6.5,4.6-9.3,6.5c-3.7,2.8-6.5,6.5-10.2,9.3c-3.7,3.7-6.5,7.4-11.1,11.1c-6.5,8.3-14.8,17.6-21.3,26.9
	c-13,19.5-25,38.9-32.5,54.7c-0.9,3.7-2.8,6.5-3.7,9.3c-0.9-1.9-0.9-3.7-1.9-6.5c-0.9-4.6-2.8-12.1-3.7-18.5
	c-0.9-6.5-0.9-14.8-0.9-22.3c0-15.8,2.8-33.4,9.3-51c2.8-9.3,7.4-17.6,12.1-25c4.6-8.3,11.1-16.7,17.6-24.1
	c6.5-7.4,13.9-14.8,21.3-20.4c8.3-6.5,15.8-12.1,25-16.7c9.3-3.7,17.6-8.3,26.9-11.1c9.3-1.9,17.6-3.7,26-4.6
	c9.3-0.9,16.7,0,24.1,0.9c6.5,0.9,13.9,2.8,19.5,3.7c4.6,0.9,9.3,3.7,12.1,4.6s3.7,1.9,3.7,1.9S547.9,124.5,547,127.3z"/>
</svg>
