<?xml version="1.0" encoding="utf-8"?>
<!-- Generator: Adobe Illustrator 18.0.0, SVG Export Plug-In . SVG Version: 6.00 Build 0)  -->
<!DOCTYPE svg PUBLIC "-//W3C//DTD SVG 1.1//EN" "http://www.w3.org/Graphics/SVG/1.1/DTD/svg11.dtd">
<svg version="1.1" id="Layer_1" xmlns="http://www.w3.org/2000/svg" xmlns:xlink="http://www.w3.org/1999/xlink" x="0px" y="0px"
	 viewBox="14.4 1.8 74.1 68" enable-background="new 14.4 1.8 74.1 68" xml:space="preserve">
<g>
	<path d="M88,27.3L52.1,2.1c-0.4-0.3-0.9-0.3-1.3,0L14.9,27.3c-0.2,0.2-0.4,0.4-0.5,0.7c-0.1,0.3,0,0.6,0.2,0.8l4.9,7
		c0.2,0.3,0.6,0.5,0.9,0.5c0.2,0,0.4-0.1,0.6-0.2l30.4-21.3l30.4,21.3c0.5,0.3,1.2,0.2,1.5-0.3l4.9-7c0.2-0.2,0.2-0.5,0.2-0.8
		C88.4,27.7,88.2,27.4,88,27.3z"/>
	<path d="M79.1,38.5l-27-18.9c-0.4-0.3-0.9-0.3-1.3,0l-27.1,19c-0.3,0.2-0.5,0.5-0.5,0.9v29.2c0,0.6,0.5,1.1,1.1,1.1h18.9
		c0.6,0,1.1-0.5,1.1-1.1V43.2h14.3v25.5c0,0.6,0.5,1.1,1.1,1.1h18.7c0.6,0,1.1-0.5,1.1-1.1V39.4C79.5,39,79.4,38.7,79.1,38.5z"/>
	<path d="M69.3,10.4l8.5,5.9c0.2,0.1,0.4,0.2,0.6,0.2c0.2,0,0.4,0,0.5-0.1c0.4-0.2,0.6-0.6,0.6-1V2.9c0-0.6-0.5-1.1-1.1-1.1h-8.5
		c-0.6,0-1.1,0.5-1.1,1.1v6.6C68.8,9.8,69,10.2,69.3,10.4z"/>
</g>
</svg>
