<?xml version="1.0" encoding="utf-8"?>
<!-- Generator: Adobe Illustrator 18.0.0, SVG Export Plug-In . SVG Version: 6.00 Build 0)  -->
<!DOCTYPE svg PUBLIC "-//W3C//DTD SVG 1.1//EN" "http://www.w3.org/Graphics/SVG/1.1/DTD/svg11.dtd">
<svg version="1.1" id="Layer_1" xmlns="http://www.w3.org/2000/svg" xmlns:xlink="http://www.w3.org/1999/xlink" x="0px" y="0px"
	 viewBox="17.9 1.1 66.7 66.7" enable-background="new 17.9 1.1 66.7 66.7" xml:space="preserve">
<path d="M80.1,51.2H54v-2.3h26L80.1,51.2L80.1,51.2z M82.3,53.3h2.3v10.6v2.4v1.5H17.9v-3.9h21.6c0.4-1.1,0.6-2.4,0.6-3.5
	c0-0.9,0.1-3.3,0.1-6.1l-6.5-7.4c-0.1,0-0.2,0-0.4,0c-7.1,0-12.8-5.4-12.8-12c0-1.3,0.2-2.5,0.6-3.6c-1.5-1.7-2.5-4-2.5-6.4
	c0-5.5,4.8-10,10.7-10c0.9,0,1.8,0.1,2.6,0.3c0.9-3.8,4.6-6.7,8.9-6.7c4.2,0,7.8,2.7,8.8,6.4c0,0,0,0,0,0c4.9,0,8.9,3.7,8.9,8.3
	c0,1.9-0.7,3.7-1.9,5.1c0.5,1.2,0.7,2.6,0.7,4c0,6.6-5.7,12-12.8,12c-0.1,0-0.2,0-0.2,0c0.1,4.4,0.4,13.8,0.4,16.1
	c0,1.3,0.2,2.5,0.7,3.5h4.1V53.3H52v4.3h30.3V53.3z M40.4,50.4c0.1-2.1,0.1-4.1,0.2-5.5c-1.2,0.8-2.6,1.3-4,1.7L40.4,50.4z
	 M56.3,59.9v4h21.5v-4H56.3z M52,63.9h2v-4h-2V63.9z M82.3,63.9v-4h-2.3v4H82.3z M54,55.5h26v-2.3H54V55.5z M78.9,12.6
	c3.2,0,5.7-2.6,5.7-5.7c0-3.2-2.6-5.7-5.7-5.7c-3.2,0-5.7,2.6-5.7,5.7C73.2,10,75.7,12.6,78.9,12.6z"/>
</svg>
