<?xml version="1.0" encoding="utf-8"?>
<!-- Generator: Adobe Illustrator 18.0.0, SVG Export Plug-In . SVG Version: 6.00 Build 0)  -->
<!DOCTYPE svg PUBLIC "-//W3C//DTD SVG 1.1//EN" "http://www.w3.org/Graphics/SVG/1.1/DTD/svg11.dtd">
<svg version="1.1" id="Layer_1" xmlns="http://www.w3.org/2000/svg" xmlns:xlink="http://www.w3.org/1999/xlink" x="0px" y="0px"
	 viewBox="-14.7 -3.1 75 75" enable-background="new -14.7 -3.1 75 75" xml:space="preserve">
<path fill="#010101" d="M35.1,44.2V9.8c0-6.8-5.5-12.3-12.3-12.3C16-2.6,10.5,2.9,10.5,9.8v34.4C7.9,47.1,6.3,50.9,6.3,55
	c0,9.1,7.4,16.5,16.5,16.5S39.3,64.1,39.3,55C39.3,50.9,37.7,47.1,35.1,44.2z M22.8,63.3c-4.5,0-8.2-3.7-8.2-8.2
	c0-3,1.7-5.7,4.1-7.1v-8.8V18V9.8c0-2.3,1.8-4.1,4.1-4.1c2.3,0,4.1,1.8,4.1,4.1V18v21.1v8.8C29.4,49.4,31,52,31,55
	C31,59.6,27.3,63.3,22.8,63.3z"/>
<path fill="#010101" d="M22.8,61.2c-3.4,0-6.2-2.8-6.2-6.2c0-2.7,1.7-4.9,4.1-5.8V28.1h4.1v21.1c2.4,0.9,4.1,3.1,4.1,5.8
	C29,58.4,26.2,61.2,22.8,61.2z"/>
</svg>
